# xmcd
#
# Track frame offsets:
#	150
#	32856
#	72672
#	104634
#	155143
#	180618
#	197510
#	236993
#	276253
#
# Disc length: 3892 seconds
#
# Revision: 1
# Processed by: cddbd v1.5.2PL0 Copyright (c) Steve Scherf et al.
# Submitted via: audiograbber 1.83.01
#
DISCID=8c0f3209
DTITLE=Grateful Dead - 80-05-07 Barton Hall, Cornell Uni, Ithaca NY
DYEAR=1900
DGENRE=
TTITLE0=Jack Straw
TTITLE1=Tennessee Jed
TTITLE2=Cassidy
TTITLE3=Row Jimmy
TTITLE4=El Paso
TTITLE5=Easy To Love You
TTITLE6=Althea
TTITLE7=Feel Like A Stranger
TTITLE8=Don't Ease Me In
EXTD=
EXTT0=
EXTT1=
EXTT2=
EXTT3=
EXTT4=
EXTT5=
EXTT6=
EXTT7=
EXTT8=
PLAYORDER=
